<?xml version="1.0" encoding="UTF-8" standalone="no"?>
<!DOCTYPE svg PUBLIC "-//W3C//DTD SVG 1.1//EN" "http://www.w3.org/Graphics/SVG/1.1/DTD/svg11.dtd">
<svg width="100%" height="100%" viewBox="0 0 4066 1724" version="1.1" xmlns="http://www.w3.org/2000/svg" xmlns:xlink="http://www.w3.org/1999/xlink" xml:space="preserve" xmlns:serif="http://www.serif.com/" style="fill-rule:evenodd;clip-rule:evenodd;stroke-linejoin:round;stroke-miterlimit:10;">
    <g transform="matrix(1,0,0,1,-1773,-695)">
        <g>
            <clipPath id="_clip1">
                <rect x="1773" y="695" width="4066" height="1724"/>
            </clipPath>
            <g clip-path="url(#_clip1)">
                <g>
                    <path d="M1949.5,888.5L1949.5,2080.5M2132.57,888.5L2132.57,2080.5M2315.58,888.5L2315.58,2080.5M2497.58,888.5L2497.58,2080.5M2680.59,888.5L2680.59,2080.5M2863.59,888.5L2863.59,2080.5M3045.6,888.5L3045.6,2080.5M3228.61,888.5L3228.61,2080.5M3411.61,888.5L3411.61,2080.5M3593.62,888.5L3593.62,2080.5M3776.62,888.5L3776.62,2080.5M3959.63,888.5L3959.63,2080.5M4142.64,888.5L4142.64,2080.5M4324.64,888.5L4324.64,2080.5M4507.65,888.5L4507.65,2080.5M4690.65,888.5L4690.65,2080.5M4872.66,888.5L4872.66,2080.5M5055.67,888.5L5055.67,2080.5M5238.67,888.5L5238.67,2080.5M5420.68,888.5L5420.68,2080.5M5603.68,888.5L5603.68,2080.5M5786.5,888.5L5786.5,2080.5" style="fill:none;fill-rule:nonzero;stroke:rgb(242,242,242);stroke-width:3.44px;"/>
                </g>
                <g>
                    <rect x="2538" y="1286" width="102" height="795" style="fill:rgb(255,255,0);"/>
                </g>
                <g>
                    <rect x="2721" y="1551" width="102" height="530" style="fill:rgb(255,192,0);"/>
                </g>
                <g>
                    <rect x="2904" y="1816" width="102" height="265" style="fill:rgb(255,0,0);"/>
                </g>
                <g>
                    <rect x="3086" y="1816" width="102" height="265" style="fill:rgb(255,0,0);"/>
                </g>
                <g>
                    <rect x="3269" y="1816" width="102" height="265" style="fill:rgb(255,0,0);"/>
                </g>
                <g>
                    <rect x="3452" y="1816" width="102" height="265" style="fill:rgb(255,0,0);"/>
                </g>
                <g>
                    <rect x="4183" y="1286" width="102" height="795" style="fill:rgb(255,255,0);"/>
                </g>
                <g>
                    <rect x="4365" y="1286" width="102" height="795" style="fill:rgb(255,255,0);"/>
                </g>
                <g>
                    <rect x="4548" y="1286" width="102" height="795" style="fill:rgb(255,255,0);"/>
                </g>
                <g>
                    <rect x="4731" y="1286" width="102" height="795" style="fill:rgb(255,255,0);"/>
                </g>
                <g>
                    <rect x="5461" y="1816" width="102" height="265" style="fill:rgb(255,0,0);"/>
                </g>
                <g>
                    <rect x="5644" y="1816" width="102" height="265" style="fill:rgb(255,0,0);"/>
                </g>
                <g>
                    <path d="M1990.07,1021.03L2092.07,1021.03L2092.07,2081L1990.07,2081L1990.07,1021.03ZM2173.07,1021.03L2275.07,1021.03L2275.07,2081L2173.07,2081L2173.07,1021.03ZM2355.08,1021.03L2458.08,1021.03L2458.08,2081L2355.08,2081L2355.08,1021.03ZM3634.12,1021.03L3736.12,1021.03L3736.12,2081L3634.12,2081L3634.12,1021.03ZM3817.13,1021.03L3919.13,1021.03L3919.13,2081L3817.13,2081L3817.13,1021.03ZM4000.13,1021.03L4102.13,1021.03L4102.13,2081L4000.13,2081L4000.13,1021.03ZM4913.16,1021.03L5015.16,1021.03L5015.16,2081L4913.16,2081L4913.16,1021.03ZM5096.17,1021.03L5198.17,1021.03L5198.17,2081L5096.17,2081L5096.17,1021.03ZM5279.17,1021.03L5381.18,1021.03L5381.18,2081L5279.17,2081L5279.17,1021.03Z" style="fill:rgb(71,212,90);fill-rule:nonzero;"/>
                </g>
                <g>
                    <path d="M1949.5,2080.5L5786.5,2080.5" style="fill:none;stroke:rgb(217,217,217);stroke-width:3.44px;"/>
                </g>
                <g>
                    <path d="M1949.5,2080.5L1949.5,2106.5M2132.57,2080.5L2132.57,2106.5M2315.58,2080.5L2315.58,2106.5M2497.58,2080.5L2497.58,2106.5M2680.59,2080.5L2680.59,2106.5M2863.59,2080.5L2863.59,2106.5M3045.6,2080.5L3045.6,2106.5M3228.61,2080.5L3228.61,2106.5M3411.61,2080.5L3411.61,2106.5M3593.62,2080.5L3593.62,2106.5M3776.62,2080.5L3776.62,2106.5M3959.63,2080.5L3959.63,2106.5M4142.64,2080.5L4142.64,2106.5M4324.64,2080.5L4324.64,2106.5M4507.65,2080.5L4507.65,2106.5M4690.65,2080.5L4690.65,2106.5M4872.66,2080.5L4872.66,2106.5M5055.67,2080.5L5055.67,2106.5M5238.67,2080.5L5238.67,2106.5M5420.68,2080.5L5420.68,2106.5M5603.68,2080.5L5603.68,2106.5M5786.5,2080.5L5786.5,2106.5" style="fill:none;fill-rule:nonzero;stroke:rgb(217,217,217);stroke-width:3.44px;"/>
                </g>
                <g transform="matrix(1,0,0,1,1994.66,2212)">
                    <text x="0px" y="0px" style="font-family:'Calibri';font-size:83px;fill:rgb(89,89,89);">T1</text>
                </g>
                <g transform="matrix(1,0,0,1,2177.36,2212)">
                    <text x="0px" y="0px" style="font-family:'Calibri';font-size:83px;fill:rgb(89,89,89);">T2</text>
                </g>
                <g transform="matrix(1,0,0,1,2360.05,2212)">
                    <text x="0px" y="0px" style="font-family:'Calibri';font-size:83px;fill:rgb(89,89,89);">T3</text>
                </g>
                <g transform="matrix(1,0,0,1,2542.75,2212)">
                    <text x="0px" y="0px" style="font-family:'Calibri';font-size:83px;fill:rgb(89,89,89);">T4</text>
                </g>
                <g transform="matrix(1,0,0,1,2725.45,2212)">
                    <text x="0px" y="0px" style="font-family:'Calibri';font-size:83px;fill:rgb(89,89,89);">T5</text>
                </g>
                <g transform="matrix(1,0,0,1,2908.14,2212)">
                    <text x="0px" y="0px" style="font-family:'Calibri';font-size:83px;fill:rgb(89,89,89);">T6</text>
                </g>
                <g transform="matrix(1,0,0,1,3090.84,2212)">
                    <text x="0px" y="0px" style="font-family:'Calibri';font-size:83px;fill:rgb(89,89,89);">T7</text>
                </g>
                <g transform="matrix(1,0,0,1,3273.54,2212)">
                    <text x="0px" y="0px" style="font-family:'Calibri';font-size:83px;fill:rgb(89,89,89);">T8</text>
                </g>
                <g transform="matrix(1,0,0,1,3456.23,2212)">
                    <text x="0px" y="0px" style="font-family:'Calibri';font-size:83px;fill:rgb(89,89,89);">T9</text>
                </g>
                <g transform="matrix(1,0,0,1,3615.27,2212)">
                    <text x="0px" y="0px" style="font-family:'Calibri';font-size:83px;fill:rgb(89,89,89);">T10</text>
                </g>
                <g transform="matrix(1,0,0,1,3797.97,2212)">
                    <text x="0px" y="0px" style="font-family:'Calibri';font-size:83px;fill:rgb(89,89,89);">T11</text>
                </g>
                <g transform="matrix(1,0,0,1,3980.67,2212)">
                    <text x="0px" y="0px" style="font-family:'Calibri';font-size:83px;fill:rgb(89,89,89);">T12</text>
                </g>
                <g transform="matrix(1,0,0,1,4163.36,2212)">
                    <text x="0px" y="0px" style="font-family:'Calibri';font-size:83px;fill:rgb(89,89,89);">T13</text>
                </g>
                <g transform="matrix(1,0,0,1,4346.06,2212)">
                    <text x="0px" y="0px" style="font-family:'Calibri';font-size:83px;fill:rgb(89,89,89);">T14</text>
                </g>
                <g transform="matrix(1,0,0,1,4528.76,2212)">
                    <text x="0px" y="0px" style="font-family:'Calibri';font-size:83px;fill:rgb(89,89,89);">T15</text>
                </g>
                <g transform="matrix(1,0,0,1,4711.45,2212)">
                    <text x="0px" y="0px" style="font-family:'Calibri';font-size:83px;fill:rgb(89,89,89);">T16</text>
                </g>
                <g transform="matrix(1,0,0,1,4894.15,2212)">
                    <text x="0px" y="0px" style="font-family:'Calibri';font-size:83px;fill:rgb(89,89,89);">T17</text>
                </g>
                <g transform="matrix(1,0,0,1,5076.85,2212)">
                    <text x="0px" y="0px" style="font-family:'Calibri';font-size:83px;fill:rgb(89,89,89);">T18</text>
                </g>
                <g transform="matrix(1,0,0,1,5259.54,2212)">
                    <text x="0px" y="0px" style="font-family:'Calibri';font-size:83px;fill:rgb(89,89,89);">T19</text>
                </g>
                <g transform="matrix(1,0,0,1,5442.24,2212)">
                    <text x="0px" y="0px" style="font-family:'Calibri';font-size:83px;fill:rgb(89,89,89);">T20</text>
                </g>
                <g transform="matrix(1,0,0,1,5624.94,2212)">
                    <text x="0px" y="0px" style="font-family:'Calibri';font-size:83px;fill:rgb(89,89,89);">T21</text>
                </g>
                <g transform="matrix(6.12323e-17,-1,1,6.12323e-17,1918.03,1592)">
                    <g>
                        <text x="0px" y="0px" style="font-family:'Calibri';font-size:92px;fill:rgb(89,89,89);">S</text>
                        <g transform="matrix(1,0,0,1,41.643,0)">
                            <text x="0px" y="0px" style="font-family:'Calibri';font-size:92px;fill:rgb(89,89,89);">T<tspan x="37.644px 83.689px 128.521px " y="0px 0px 0px ">ATE</tspan></text>
                        </g>
                    </g>
                </g>
                <g transform="matrix(1,0,0,1,3772.69,2334)">
                    <text x="0px" y="0px" style="font-family:'Calibri';font-size:92px;fill:rgb(89,89,89);">TIME</text>
                </g>
                <g transform="matrix(1,0,0,1,3247.34,809)">
                    <g>
                        <text x="0px" y="0px" style="font-family:'Calibri-Bold', 'Calibri';font-weight:700;font-size:83px;fill:rgb(89,89,89);">SER</text>
                        <g transform="matrix(1,0,0,1,125.432,0)">
                            <text x="0px" y="0px" style="font-family:'Calibri-Bold', 'Calibri';font-weight:700;font-size:83px;fill:rgb(89,89,89);">VICE S</text>
                        </g>
                        <g transform="matrix(1,0,0,1,338.241,0)">
                            <text x="0px" y="0px" style="font-family:'Calibri-Bold', 'Calibri';font-weight:700;font-size:83px;fill:rgb(89,89,89);">T<tspan x="34.57px 78.38px 119.475px " y="0px 0px 0px ">ATE</tspan> TRANSITIONS</text>
                        </g>
                    </g>
                </g>
                <rect x="1774.5" y="696.5" width="4063" height="1721" style="fill:none;stroke:rgb(217,217,217);stroke-width:3.44px;"/>
            </g>
        </g>
    </g>
    <g transform="matrix(3.9407e-17,0.643564,-0.76,4.65366e-17,933.445,-238.074)">
        <path d="M672.6,291.525L672.6,258.275L808.406,258.275L808.406,227.4L864.5,274.9L808.406,322.4L808.406,291.525L672.6,291.525Z" style="fill:rgb(118,118,255);stroke:rgb(85,85,255);stroke-width:4.26px;stroke-linecap:round;stroke-miterlimit:1.5;"/>
    </g>
    <g transform="matrix(3.9407e-17,0.643564,-0.76,4.65366e-17,1116.78,-238.314)">
        <path d="M672.6,291.525L672.6,258.275L808.406,258.275L808.406,227.4L864.5,274.9L808.406,322.4L808.406,291.525L672.6,291.525Z" style="fill:rgb(118,118,255);stroke:rgb(85,85,255);stroke-width:4.26px;stroke-linecap:round;stroke-miterlimit:1.5;"/>
    </g>
    <g transform="matrix(3.9407e-17,0.643564,-0.76,4.65366e-17,1299.68,-238.571)">
        <path d="M672.6,291.525L672.6,258.275L808.406,258.275L808.406,227.4L864.5,274.9L808.406,322.4L808.406,291.525L672.6,291.525Z" style="fill:rgb(118,118,255);stroke:rgb(85,85,255);stroke-width:4.26px;stroke-linecap:round;stroke-miterlimit:1.5;"/>
    </g>
    <g transform="matrix(3.9407e-17,0.643564,-0.76,4.65366e-17,2029.41,-237.707)">
        <path d="M672.6,291.525L672.6,258.275L808.406,258.275L808.406,227.4L864.5,274.9L808.406,322.4L808.406,291.525L672.6,291.525Z" style="fill:rgb(118,118,255);stroke:rgb(85,85,255);stroke-width:4.26px;stroke-linecap:round;stroke-miterlimit:1.5;"/>
    </g>
    <g transform="matrix(3.9407e-17,0.643564,-0.76,4.65366e-17,2580.02,-238.571)">
        <path d="M672.6,291.525L672.6,258.275L808.406,258.275L808.406,227.4L864.5,274.9L808.406,322.4L808.406,291.525L672.6,291.525Z" style="fill:rgb(118,118,255);stroke:rgb(85,85,255);stroke-width:4.26px;stroke-linecap:round;stroke-miterlimit:1.5;"/>
    </g>
    <g transform="matrix(3.9407e-17,0.643564,-0.76,4.65366e-17,3309.26,-237.983)">
        <path d="M672.6,291.525L672.6,258.275L808.406,258.275L808.406,227.4L864.5,274.9L808.406,322.4L808.406,291.525L672.6,291.525Z" style="fill:rgb(118,118,255);stroke:rgb(85,85,255);stroke-width:4.26px;stroke-linecap:round;stroke-miterlimit:1.5;"/>
    </g>
    <g transform="matrix(3.9407e-17,0.643564,-0.76,4.65366e-17,3856.13,-237.998)">
        <path d="M672.6,291.525L672.6,258.275L808.406,258.275L808.406,227.4L864.5,274.9L808.406,322.4L808.406,291.525L672.6,291.525Z" style="fill:rgb(118,118,255);stroke:rgb(85,85,255);stroke-width:4.26px;stroke-linecap:round;stroke-miterlimit:1.5;"/>
    </g>
</svg>
