<?xml version="1.0" encoding="UTF-8" standalone="no"?>
<!DOCTYPE svg PUBLIC "-//W3C//DTD SVG 1.1//EN" "http://www.w3.org/Graphics/SVG/1.1/DTD/svg11.dtd">
<svg width="100%" height="100%" viewBox="0 0 4075 1733" version="1.1" xmlns="http://www.w3.org/2000/svg" xmlns:xlink="http://www.w3.org/1999/xlink" xml:space="preserve" xmlns:serif="http://www.serif.com/" style="fill-rule:evenodd;clip-rule:evenodd;stroke-linejoin:round;stroke-miterlimit:10;">
    <g transform="matrix(1,0,0,1,-1722,-2879)">
        <clipPath id="_clip1">
            <rect x="1722" y="2879" width="4075" height="1733"/>
        </clipPath>
        <g clip-path="url(#_clip1)">
            <g>
                <path d="M2086.5,4105.63L5744.5,4105.63M2086.5,3937.63L5744.5,3937.63M2086.5,3768.62L5744.5,3768.62M2086.5,3600.62L5744.5,3600.62M2086.5,3431.61L5744.5,3431.61M2086.5,3263.61L5744.5,3263.61M2086.5,3095.5L5744.5,3095.5" style="fill:none;fill-rule:nonzero;stroke:rgb(242,242,242);stroke-width:3.44px;"/>
            </g>
            <g>
                <path d="M2495.08,3563.12L2549.08,3563.12L2549.08,4274L2495.08,4274L2495.08,3563.12ZM2669.09,3544.12L2723.09,3544.12L2723.09,4274L2669.09,4274L2669.09,3544.12ZM2844.09,3525.12L2897.1,3525.12L2897.1,4274L2844.09,4274L2844.09,3525.12ZM3540.12,3451.11L3594.12,3451.11L3594.12,4274L3540.12,4274L3540.12,3451.11ZM4063.13,3394.11L4116.14,3394.11L4116.14,4274L4063.13,4274L4063.13,3394.11ZM4760.16,3320.11L4813.16,3320.11L4813.16,4274L4760.16,4274L4760.16,3320.11ZM5282.17,3263.11L5336.17,3263.11L5336.17,4274L5282.17,4274L5282.17,3263.11Z" style="fill:rgb(233,113,50);fill-rule:nonzero;"/>
            </g>
            <g>
                <path d="M2086.5,4274.5L5744.5,4274.5" style="fill:none;stroke:rgb(217,217,217);stroke-width:3.44px;"/>
            </g>
            <g>
                <path d="M2174,3600L2348.08,3582.12L2522.08,3563.12L2696.09,3544.12L2870.09,3525.12L3045.1,3507.11L3219.11,3488.11L3393.11,3469.11L3567.12,3451.11L3741.12,3432.11L3916.13,3413.11L4090.13,3394.11L4264.14,3376.11L4438.15,3357.11L4612.15,3338.11L4787.16,3320.11L4961.16,3301.11L5135.17,3282.11L5309.17,3263.11L5483.18,3245.11L5658,3226" style="fill:none;fill-rule:nonzero;stroke:rgb(21,96,130);stroke-width:10.31px;stroke-linecap:round;"/>
            </g>
            <g transform="matrix(1,0,0,1,1968.14,4298)">
                <text x="0px" y="0px" style="font-family:'Calibri';font-size:83px;fill:rgb(89,89,89);">0</text>
            </g>
            <g transform="matrix(1,0,0,1,1905.74,4130)">
                <text x="0px" y="0px" style="font-family:'Calibri';font-size:83px;fill:rgb(89,89,89);">0,2</text>
            </g>
            <g transform="matrix(1,0,0,1,1905.74,3961)">
                <text x="0px" y="0px" style="font-family:'Calibri';font-size:83px;fill:rgb(89,89,89);">0,4</text>
            </g>
            <g transform="matrix(1,0,0,1,1905.74,3793)">
                <text x="0px" y="0px" style="font-family:'Calibri';font-size:83px;fill:rgb(89,89,89);">0,6</text>
            </g>
            <g transform="matrix(1,0,0,1,1905.74,3625)">
                <text x="0px" y="0px" style="font-family:'Calibri';font-size:83px;fill:rgb(89,89,89);">0,8</text>
            </g>
            <g transform="matrix(1,0,0,1,1968.14,3456)">
                <text x="0px" y="0px" style="font-family:'Calibri';font-size:83px;fill:rgb(89,89,89);">1</text>
            </g>
            <g transform="matrix(1,0,0,1,1905.74,3288)">
                <text x="0px" y="0px" style="font-family:'Calibri';font-size:83px;fill:rgb(89,89,89);">1,2</text>
            </g>
            <g transform="matrix(1,0,0,1,1905.74,3119)">
                <text x="0px" y="0px" style="font-family:'Calibri';font-size:83px;fill:rgb(89,89,89);">1,4</text>
            </g>
            <g transform="matrix(1,0,0,1,2138.88,4406)">
                <text x="0px" y="0px" style="font-family:'Calibri';font-size:83px;fill:rgb(89,89,89);">t1</text>
            </g>
            <g transform="matrix(1,0,0,1,2313.09,4406)">
                <text x="0px" y="0px" style="font-family:'Calibri';font-size:83px;fill:rgb(89,89,89);">t2</text>
            </g>
            <g transform="matrix(1,0,0,1,2487.29,4406)">
                <text x="0px" y="0px" style="font-family:'Calibri';font-size:83px;fill:rgb(89,89,89);">t3</text>
            </g>
            <g transform="matrix(1,0,0,1,2661.49,4406)">
                <text x="0px" y="0px" style="font-family:'Calibri';font-size:83px;fill:rgb(89,89,89);">t4</text>
            </g>
            <g transform="matrix(1,0,0,1,2835.7,4406)">
                <text x="0px" y="0px" style="font-family:'Calibri';font-size:83px;fill:rgb(89,89,89);">t5</text>
            </g>
            <g transform="matrix(1,0,0,1,3009.9,4406)">
                <text x="0px" y="0px" style="font-family:'Calibri';font-size:83px;fill:rgb(89,89,89);">t6</text>
            </g>
            <g transform="matrix(1,0,0,1,3184.11,4406)">
                <text x="0px" y="0px" style="font-family:'Calibri';font-size:83px;fill:rgb(89,89,89);">t7</text>
            </g>
            <g transform="matrix(1,0,0,1,3358.31,4406)">
                <text x="0px" y="0px" style="font-family:'Calibri';font-size:83px;fill:rgb(89,89,89);">t8</text>
            </g>
            <g transform="matrix(1,0,0,1,3532.52,4406)">
                <text x="0px" y="0px" style="font-family:'Calibri';font-size:83px;fill:rgb(89,89,89);">t9</text>
            </g>
            <g transform="matrix(1,0,0,1,3685.81,4406)">
                <text x="0px" y="0px" style="font-family:'Calibri';font-size:83px;fill:rgb(89,89,89);">t10</text>
            </g>
            <g transform="matrix(1,0,0,1,3860.01,4406)">
                <text x="0px" y="0px" style="font-family:'Calibri';font-size:83px;fill:rgb(89,89,89);">t11</text>
            </g>
            <g transform="matrix(1,0,0,1,4034.22,4406)">
                <text x="0px" y="0px" style="font-family:'Calibri';font-size:83px;fill:rgb(89,89,89);">t12</text>
            </g>
            <g transform="matrix(1,0,0,1,4208.42,4406)">
                <text x="0px" y="0px" style="font-family:'Calibri';font-size:83px;fill:rgb(89,89,89);">t13</text>
            </g>
            <g transform="matrix(1,0,0,1,4382.63,4406)">
                <text x="0px" y="0px" style="font-family:'Calibri';font-size:83px;fill:rgb(89,89,89);">t14</text>
            </g>
            <g transform="matrix(1,0,0,1,4556.83,4406)">
                <text x="0px" y="0px" style="font-family:'Calibri';font-size:83px;fill:rgb(89,89,89);">t15</text>
            </g>
            <g transform="matrix(1,0,0,1,4731.04,4406)">
                <text x="0px" y="0px" style="font-family:'Calibri';font-size:83px;fill:rgb(89,89,89);">t16</text>
            </g>
            <g transform="matrix(1,0,0,1,4905.24,4406)">
                <text x="0px" y="0px" style="font-family:'Calibri';font-size:83px;fill:rgb(89,89,89);">t17</text>
            </g>
            <g transform="matrix(1,0,0,1,5079.45,4406)">
                <text x="0px" y="0px" style="font-family:'Calibri';font-size:83px;fill:rgb(89,89,89);">t18</text>
            </g>
            <g transform="matrix(1,0,0,1,5253.65,4406)">
                <text x="0px" y="0px" style="font-family:'Calibri';font-size:83px;fill:rgb(89,89,89);">t19</text>
            </g>
            <g transform="matrix(1,0,0,1,5427.86,4406)">
                <text x="0px" y="0px" style="font-family:'Calibri';font-size:83px;fill:rgb(89,89,89);">t20</text>
            </g>
            <g transform="matrix(1,0,0,1,5602.06,4406)">
                <text x="0px" y="0px" style="font-family:'Calibri';font-size:83px;fill:rgb(89,89,89);">t21</text>
            </g>
            <g transform="matrix(6.12323e-17,-1,1,6.12323e-17,1867.08,3839)">
                <text x="0px" y="0px" style="font-family:'Calibri';font-size:92px;fill:rgb(89,89,89);">WEIGHT</text>
            </g>
            <g transform="matrix(1,0,0,1,3820.21,4528)">
                <text x="0px" y="0px" style="font-family:'Calibri';font-size:92px;fill:rgb(89,89,89);">TIME</text>
            </g>
            <g transform="matrix(1,0,0,1,3222.12,2993)">
                <text x="0px" y="0px" style="font-family:'Calibri-Bold', 'Calibri';font-weight:700;font-size:83px;fill:rgb(89,89,89);">WEIGHTED S<tspan x="434.169px 468.739px 512.549px 553.644px " y="0px 0px 0px 0px ">TATE</tspan> TRANSITIONS</text>
            </g>
            <rect x="1723.5" y="2880.5" width="4072" height="1730" style="fill:none;stroke:rgb(217,217,217);stroke-width:3.44px;"/>
        </g>
    </g>
</svg>
