<?xml version="1.0" encoding="UTF-8" standalone="no"?>
<!DOCTYPE svg PUBLIC "-//W3C//DTD SVG 1.1//EN" "http://www.w3.org/Graphics/SVG/1.1/DTD/svg11.dtd">
<svg width="100%" height="100%" viewBox="0 0 4066 1724" version="1.1" xmlns="http://www.w3.org/2000/svg" xmlns:xlink="http://www.w3.org/1999/xlink" xml:space="preserve" xmlns:serif="http://www.serif.com/" style="fill-rule:evenodd;clip-rule:evenodd;stroke-linejoin:round;stroke-miterlimit:10;">
    <g transform="matrix(1,0,0,1,-1773,-695)">
        <g>
            <clipPath id="_clip1">
                <rect x="1773" y="695" width="4066" height="1724"/>
            </clipPath>
            <g clip-path="url(#_clip1)">
                <g>
                    <path d="M1943.5,882.5L1943.5,2095.5M2126.57,882.5L2126.57,2095.5M2309.58,882.5L2309.58,2095.5M2492.58,882.5L2492.58,2095.5M2675.59,882.5L2675.59,2095.5M2858.59,882.5L2858.59,2095.5M3041.6,882.5L3041.6,2095.5M3224.61,882.5L3224.61,2095.5M3407.61,882.5L3407.61,2095.5M3590.62,882.5L3590.62,2095.5M3773.62,882.5L3773.62,2095.5M3956.63,882.5L3956.63,2095.5M4139.64,882.5L4139.64,2095.5M4322.64,882.5L4322.64,2095.5M4505.65,882.5L4505.65,2095.5M4688.65,882.5L4688.65,2095.5M4871.66,882.5L4871.66,2095.5M5054.67,882.5L5054.67,2095.5M5237.67,882.5L5237.67,2095.5M5420.68,882.5L5420.68,2095.5M5603.68,882.5L5603.68,2095.5M5786.5,882.5L5786.5,2095.5" style="fill:none;fill-rule:nonzero;stroke:rgb(242,242,242);stroke-width:3.44px;"/>
                </g>
                <g>
                    <rect x="2533" y="1287" width="102" height="808" style="fill:rgb(255,255,0);"/>
                </g>
                <g>
                    <rect x="2716" y="1556" width="102" height="539" style="fill:rgb(255,192,0);"/>
                </g>
                <g>
                    <rect x="2899" y="1826" width="102" height="269" style="fill:rgb(255,0,0);"/>
                </g>
                <g>
                    <rect x="3082" y="1826" width="102" height="269" style="fill:rgb(255,0,0);"/>
                </g>
                <g>
                    <rect x="3265" y="1826" width="102" height="269" style="fill:rgb(255,0,0);"/>
                </g>
                <g>
                    <rect x="3448" y="1826" width="102" height="269" style="fill:rgb(255,0,0);"/>
                </g>
                <g>
                    <rect x="4180" y="1287" width="102" height="808" style="fill:rgb(255,255,0);"/>
                </g>
                <g>
                    <rect x="4363" y="1287" width="102" height="808" style="fill:rgb(255,255,0);"/>
                </g>
                <g>
                    <rect x="4546" y="1287" width="102" height="808" style="fill:rgb(255,255,0);"/>
                </g>
                <g>
                    <rect x="4729" y="1287" width="102" height="808" style="fill:rgb(255,255,0);"/>
                </g>
                <g>
                    <rect x="5461" y="1826" width="102" height="269" style="fill:rgb(255,0,0);"/>
                </g>
                <g>
                    <rect x="5644" y="1826" width="102" height="269" style="fill:rgb(255,0,0);"/>
                </g>
                <g>
                    <path d="M1984.07,1017.03L2086.07,1017.03L2086.07,2095L1984.07,2095L1984.07,1017.03ZM2167.07,1017.03L2269.07,1017.03L2269.07,2095L2167.07,2095L2167.07,1017.03ZM2350.08,1017.03L2452.08,1017.03L2452.08,2095L2350.08,2095L2350.08,1017.03ZM3631.12,1017.03L3733.12,1017.03L3733.12,2095L3631.12,2095L3631.12,1017.03ZM3814.12,1017.03L3916.13,1017.03L3916.13,2095L3814.12,2095L3814.12,1017.03ZM3997.13,1017.03L4099.13,1017.03L4099.13,2095L3997.13,2095L3997.13,1017.03ZM4912.16,1017.03L5014.16,1017.03L5014.16,2095L4912.16,2095L4912.16,1017.03ZM5095.17,1017.03L5197.17,1017.03L5197.17,2095L5095.17,2095L5095.17,1017.03ZM5278.17,1017.03L5380.18,1017.03L5380.18,2095L5278.17,2095L5278.17,1017.03Z" style="fill:rgb(71,212,90);fill-rule:nonzero;"/>
                </g>
                <g>
                    <path d="M1943.5,2095.5L5786.5,2095.5" style="fill:none;stroke:rgb(217,217,217);stroke-width:3.44px;"/>
                </g>
                <g>
                    <path d="M1943.5,2095.5L1943.5,2120.5M2126.57,2095.5L2126.57,2120.5M2309.58,2095.5L2309.58,2120.5M2492.58,2095.5L2492.58,2120.5M2675.59,2095.5L2675.59,2120.5M2858.59,2095.5L2858.59,2120.5M3041.6,2095.5L3041.6,2120.5M3224.61,2095.5L3224.61,2120.5M3407.61,2095.5L3407.61,2120.5M3590.62,2095.5L3590.62,2120.5M3773.62,2095.5L3773.62,2120.5M3956.63,2095.5L3956.63,2120.5M4139.64,2095.5L4139.64,2120.5M4322.64,2095.5L4322.64,2120.5M4505.65,2095.5L4505.65,2120.5M4688.65,2095.5L4688.65,2120.5M4871.66,2095.5L4871.66,2120.5M5054.67,2095.5L5054.67,2120.5M5237.67,2095.5L5237.67,2120.5M5420.68,2095.5L5420.68,2120.5M5603.68,2095.5L5603.68,2120.5M5786.5,2095.5L5786.5,2120.5" style="fill:none;fill-rule:nonzero;stroke:rgb(217,217,217);stroke-width:3.44px;"/>
                </g>
                <g transform="matrix(1,0,0,1,1994.94,2222)">
                    <text x="0px" y="0px" style="font-family:'ArialMT', 'Arial';font-size:83px;fill:rgb(89,89,89);">t1</text>
                </g>
                <g transform="matrix(1,0,0,1,2177.94,2222)">
                    <text x="0px" y="0px" style="font-family:'ArialMT', 'Arial';font-size:83px;fill:rgb(89,89,89);">t2</text>
                </g>
                <g transform="matrix(1,0,0,1,2360.95,2222)">
                    <text x="0px" y="0px" style="font-family:'ArialMT', 'Arial';font-size:83px;fill:rgb(89,89,89);">t3</text>
                </g>
                <g transform="matrix(1,0,0,1,2543.96,2222)">
                    <text x="0px" y="0px" style="font-family:'ArialMT', 'Arial';font-size:83px;fill:rgb(89,89,89);">t4</text>
                </g>
                <g transform="matrix(1,0,0,1,2726.96,2222)">
                    <text x="0px" y="0px" style="font-family:'ArialMT', 'Arial';font-size:83px;fill:rgb(89,89,89);">t5</text>
                </g>
                <g transform="matrix(1,0,0,1,2909.97,2222)">
                    <text x="0px" y="0px" style="font-family:'ArialMT', 'Arial';font-size:83px;fill:rgb(89,89,89);">t6</text>
                </g>
                <g transform="matrix(1,0,0,1,3092.97,2222)">
                    <text x="0px" y="0px" style="font-family:'ArialMT', 'Arial';font-size:83px;fill:rgb(89,89,89);">t7</text>
                </g>
                <g transform="matrix(1,0,0,1,3275.98,2222)">
                    <text x="0px" y="0px" style="font-family:'ArialMT', 'Arial';font-size:83px;fill:rgb(89,89,89);">t8</text>
                </g>
                <g transform="matrix(1,0,0,1,3458.99,2222)">
                    <text x="0px" y="0px" style="font-family:'ArialMT', 'Arial';font-size:83px;fill:rgb(89,89,89);">t9</text>
                </g>
                <g transform="matrix(1,0,0,1,3616.3,2222)">
                    <text x="0px" y="0px" style="font-family:'ArialMT', 'Arial';font-size:83px;fill:rgb(89,89,89);">t10</text>
                </g>
                <g transform="matrix(1,0,0,1,3802.37,2222)">
                    <g>
                        <text x="0px" y="0px" style="font-family:'ArialMT', 'Arial';font-size:83px;fill:rgb(89,89,89);">t1</text>
                        <g transform="matrix(1,0,0,1,63.061,0)">
                            <text x="0px" y="0px" style="font-family:'ArialMT', 'Arial';font-size:83px;fill:rgb(89,89,89);">1</text>
                        </g>
                    </g>
                </g>
                <g transform="matrix(1,0,0,1,3982.31,2222)">
                    <text x="0px" y="0px" style="font-family:'ArialMT', 'Arial';font-size:83px;fill:rgb(89,89,89);">t12</text>
                </g>
                <g transform="matrix(1,0,0,1,4165.32,2222)">
                    <text x="0px" y="0px" style="font-family:'ArialMT', 'Arial';font-size:83px;fill:rgb(89,89,89);">t13</text>
                </g>
                <g transform="matrix(1,0,0,1,4348.33,2222)">
                    <text x="0px" y="0px" style="font-family:'ArialMT', 'Arial';font-size:83px;fill:rgb(89,89,89);">t14</text>
                </g>
                <g transform="matrix(1,0,0,1,4531.33,2222)">
                    <text x="0px" y="0px" style="font-family:'ArialMT', 'Arial';font-size:83px;fill:rgb(89,89,89);">t15</text>
                </g>
                <g transform="matrix(1,0,0,1,4714.34,2222)">
                    <text x="0px" y="0px" style="font-family:'ArialMT', 'Arial';font-size:83px;fill:rgb(89,89,89);">t16</text>
                </g>
                <g transform="matrix(1,0,0,1,4897.34,2222)">
                    <text x="0px" y="0px" style="font-family:'ArialMT', 'Arial';font-size:83px;fill:rgb(89,89,89);">t17</text>
                </g>
                <g transform="matrix(1,0,0,1,5080.35,2222)">
                    <text x="0px" y="0px" style="font-family:'ArialMT', 'Arial';font-size:83px;fill:rgb(89,89,89);">t18</text>
                </g>
                <g transform="matrix(1,0,0,1,5263.36,2222)">
                    <text x="0px" y="0px" style="font-family:'ArialMT', 'Arial';font-size:83px;fill:rgb(89,89,89);">t19</text>
                </g>
                <g transform="matrix(1,0,0,1,5446.36,2222)">
                    <text x="0px" y="0px" style="font-family:'ArialMT', 'Arial';font-size:83px;fill:rgb(89,89,89);">t20</text>
                </g>
                <g transform="matrix(1,0,0,1,5629.37,2222)">
                    <text x="0px" y="0px" style="font-family:'ArialMT', 'Arial';font-size:83px;fill:rgb(89,89,89);">t21</text>
                </g>
                <g transform="matrix(6.12323e-17,-1,1,6.12323e-17,1917.05,1596)">
                    <text x="0px" y="0px" style="font-family:'ArialMT', 'Arial';font-size:92px;fill:rgb(89,89,89);">State</text>
                </g>
                <g transform="matrix(1,0,0,1,3764.74,2340)">
                    <g>
                        <text x="0px" y="0px" style="font-family:'ArialMT', 'Arial';font-size:92px;fill:rgb(89,89,89);">T</text>
                        <g transform="matrix(1,0,0,1,52.783,0)">
                            <text x="0px" y="0px" style="font-family:'ArialMT', 'Arial';font-size:92px;fill:rgb(89,89,89);">ime</text>
                        </g>
                    </g>
                </g>
                <rect x="1774.5" y="696.5" width="4063" height="1721" style="fill:none;stroke:rgb(217,217,217);stroke-width:3.44px;"/>
            </g>
        </g>
    </g>
    <g transform="matrix(4.21384e-17,0.688172,-0.883721,5.41123e-17,784.399,-102.795)">
        <path d="M418.108,87.206L418.108,58.342L543.522,58.342L543.522,31.539L596.475,72.774L543.522,114.009L543.522,87.206L418.108,87.206Z" style="fill:rgb(146,146,255);stroke:rgb(81,81,255);stroke-width:5.05px;stroke-linecap:round;stroke-miterlimit:1.5;"/>
    </g>
    <g transform="matrix(4.21384e-17,0.688172,-0.883721,5.41123e-17,967.399,-102.795)">
        <path d="M418.108,87.206L418.108,58.342L543.522,58.342L543.522,31.539L596.475,72.774L543.522,114.009L543.522,87.206L418.108,87.206Z" style="fill:rgb(146,146,255);stroke:rgb(81,81,255);stroke-width:5.05px;stroke-linecap:round;stroke-miterlimit:1.5;"/>
    </g>
    <g transform="matrix(4.21384e-17,0.688172,-0.883721,5.41123e-17,1150.4,-102.795)">
        <path d="M418.108,87.206L418.108,58.342L543.522,58.342L543.522,31.539L596.475,72.774L543.522,114.009L543.522,87.206L418.108,87.206Z" style="fill:rgb(146,146,255);stroke:rgb(81,81,255);stroke-width:5.05px;stroke-linecap:round;stroke-miterlimit:1.5;"/>
    </g>
    <g transform="matrix(4.21384e-17,0.688172,-0.883721,5.41123e-17,1881.4,-102.795)">
        <path d="M418.108,87.206L418.108,58.342L543.522,58.342L543.522,31.539L596.475,72.774L543.522,114.009L543.522,87.206L418.108,87.206Z" style="fill:rgb(146,146,255);stroke:rgb(81,81,255);stroke-width:5.05px;stroke-linecap:round;stroke-miterlimit:1.5;"/>
    </g>
    <g transform="matrix(4.21384e-17,0.688172,-0.883721,5.41123e-17,2430.4,-102.795)">
        <path d="M418.108,87.206L418.108,58.342L543.522,58.342L543.522,31.539L596.475,72.774L543.522,114.009L543.522,87.206L418.108,87.206Z" style="fill:rgb(146,146,255);stroke:rgb(81,81,255);stroke-width:5.05px;stroke-linecap:round;stroke-miterlimit:1.5;"/>
    </g>
    <g transform="matrix(4.21384e-17,0.688172,-0.883721,5.41123e-17,3162.4,-102.795)">
        <path d="M418.108,87.206L418.108,58.342L543.522,58.342L543.522,31.539L596.475,72.774L543.522,114.009L543.522,87.206L418.108,87.206Z" style="fill:rgb(146,146,255);stroke:rgb(81,81,255);stroke-width:5.05px;stroke-linecap:round;stroke-miterlimit:1.5;"/>
    </g>
    <g transform="matrix(4.21384e-17,0.688172,-0.883721,5.41123e-17,3711.73,-102.795)">
        <path d="M418.108,87.206L418.108,58.342L543.522,58.342L543.522,31.539L596.475,72.774L543.522,114.009L543.522,87.206L418.108,87.206Z" style="fill:rgb(146,146,255);stroke:rgb(81,81,255);stroke-width:5.05px;stroke-linecap:round;stroke-miterlimit:1.5;"/>
    </g>
    <g transform="matrix(1,0,0,1,-1105.44,-19.1792)">
        <g transform="matrix(80,0,0,80,3652.91,129.353)">
        </g>
        <text x="2627.56px" y="129.353px" style="font-family:'Arial-BoldMT', 'Arial';font-weight:700;font-size:80px;fill:rgb(89,89,89);">W<tspan x="2701.62px 2746.11px " y="129.353px 129.353px ">ei</tspan>ghted State T<tspan x="3270.6px 3301.74px " y="129.353px 129.353px ">ra</tspan>nsitions</text>
    </g>
</svg>
