<svg id="Layer_1" data-name="Layer 1" xmlns="http://www.w3.org/2000/svg" viewBox="0 0 1366 420.52"><defs><style>.cls-1{fill:none;}.cls-2{fill:#3f3f3f;}.cls-3{fill:#fff;}</style></defs><title>naemonlogo</title><path class="cls-1" d="M-61-716.1H1305v420.51H-61ZM4.7-561.18,3.18-563c-7.78-9.6-17.89-13-29.67-10-11.58,2.92-18.82,10.78-20.37,22.62-1.11,8.44-.88,17.08-1,25.63-.25,21.64-.36,43.29-.5,64.93q-.27,42.06-.48,84.13c0,4.47,2.47,7,7,7.09,8.93.12,17.85.25,26.78.32q40.72.3,81.44.55l80.62.54,81.16.54,80.9.54,81.16.54,80.89.54L633.43-364q40.32.27,80.63.54l162.59,1.09,80.36.54q43.56.27,87.11.54,37.34.25,74.67.53,73.88.45,147.73.85c5.32,0,7.52-2.21,7.56-7.57q.48-69.25,1-138.51c0-3.79.09-7.57,0-11.36,0-3-1.41-5.29-4.33-6.16a4.08,4.08,0,0,1-2.82-2.8c-6.6-16.08-17.38-28.32-33.91-34.37-26.38-9.66-51.51-6.91-75,9-.78.53-1.59,1-2.43,1.56-.83-1-1.44-1.82-2.07-2.57a28.43,28.43,0,0,0-30.82-8.83c-11,3.56-18.36,13.27-19,25.36-.2,3.58,0,7.19,0,11.13H1101c-12.72-.12-25.43-.29-38.15-.31a4.64,4.64,0,0,1-4-2.12c-4.14-5-8-10.3-12.75-14.65-21.54-19.82-47.16-28.22-76.24-25.69-29.28,2.56-52.82,15.66-70.23,39.47a3.86,3.86,0,0,1-3.52,1.89c-14.89-.13-29.77-.23-44.65-.19-2.35,0-3.41-.7-4.28-2.93-6.11-15.52-16.25-27.58-32-33.75-25.88-10.17-50.67-7.55-73.82,8.11-4.45,3-8.57,6.48-13,9.88-11.77-15.77-28-23-47.27-24.63s-36.34,3.49-51.81,14.87c-.89-1.1-1.62-2-2.37-2.9a28.34,28.34,0,0,0-44.24,1.16,27.36,27.36,0,0,0-5.54,16.09c-.1,3.93,0,7.87,0,11.81a15.27,15.27,0,0,1-1.78.27c-12.62-.05-25.25-.06-37.88-.24a4.3,4.3,0,0,1-2.82-1.86,95.47,95.47,0,0,0-19.83-22c-21.84-17.36-46.51-24-74-18.82C416.12-566.92,397-553.48,383-532.78a5.85,5.85,0,0,1-5.67,3c-10-.21-20-.17-30-.22h-7.87v-14.32a28.44,28.44,0,0,0-36.25-27.77c-6.47,1.74-11.43,5.54-15.47,11l-3.07-1.79c-22.43-13.24-46.23-16.13-71-8.52-20.54,6.31-36.3,19.19-47.82,37.25a5.21,5.21,0,0,1-5.13,2.81c-12.53-.17-25.07-.12-37.61-.19-4.86,0-4.82-.09-6.55-4.56-5.75-14.85-15.1-26.64-29.66-33.62-17-8.15-34.79-9.4-53-5.32C23.15-572.66,13.71-567.6,4.7-561.18Z" transform="translate(61 716.1)"/><path class="cls-2" d="M4.7-560.18c9-6.42,18.45-11.48,29.06-13.86,18.23-4.08,36-2.83,53,5.32,14.56,7,23.91,18.77,29.66,33.62,1.73,4.47,1.69,4.53,6.55,4.56,12.54.07,25.08,0,37.61.19a5.21,5.21,0,0,0,5.13-2.81c11.52-18.06,27.28-30.94,47.82-37.25,24.81-7.61,48.61-4.72,71,8.52l3.07,1.79c4-5.47,9-9.27,15.47-11a28.44,28.44,0,0,1,36.25,27.77V-529h7.87c10,0,20,0,30,.22a5.85,5.85,0,0,0,5.67-3c14.06-20.7,33.17-34.14,57.88-38.82,27.49-5.19,52.16,1.46,74,18.82a95.47,95.47,0,0,1,19.83,22,4.3,4.3,0,0,0,2.82,1.86c12.63.18,25.26.19,37.88.24a15.27,15.27,0,0,0,1.78-.27c0-3.94-.08-7.88,0-11.81a27.36,27.36,0,0,1,5.54-16.09A28.34,28.34,0,0,1,626.94-557c.75.89,1.48,1.8,2.37,2.9,15.47-11.38,32.64-16.53,51.81-14.87s35.5,8.86,47.27,24.63c4.46-3.4,8.58-6.87,13-9.88,23.15-15.66,47.94-18.28,73.82-8.11,15.72,6.17,25.86,18.23,32,33.75.87,2.23,1.93,2.94,4.28,2.93,14.88,0,29.76.06,44.65.19a3.86,3.86,0,0,0,3.52-1.89c17.41-23.81,41-36.91,70.23-39.47,29.08-2.53,54.7,5.87,76.24,25.69,4.74,4.35,8.61,9.67,12.75,14.65a4.64,4.64,0,0,0,4,2.12c12.72,0,25.43.19,38.15.31h3.67c0-3.94-.17-7.55,0-11.13.69-12.09,8-21.8,19-25.36a28.43,28.43,0,0,1,30.82,8.83c.63.75,1.24,1.53,2.07,2.57.84-.54,1.65-1,2.43-1.56,23.44-15.9,48.57-18.65,75-9,16.53,6,27.67,18.9,35,34.67a72.55,72.55,0,0,1,4,12,127.65,127.65,0,0,1,2,17v7c-.31,46.17-.6,76.36-.92,122.53,0,5.36-2.24,7.59-7.56,7.57q-73.86-.41-147.73-.85-37.33-.22-74.67-.53-43.54-.29-87.11-.54l-80.36-.54-162.59-1.09q-40.32-.26-80.63-.54L471.1-364.07l-80.89-.54-81.16-.54-80.9-.54L147-366.23l-80.62-.54q-40.73-.28-81.44-.55c-8.93-.07-17.85-.2-26.78-.32-4.5-.06-7-2.62-7-7.09q.24-42.06.48-84.13c.14-21.64.25-43.29.5-64.93.1-8.55-.13-17.19,1-25.63,1.55-11.84,8.79-19.7,20.37-22.62,11.78-3,21.89.39,29.67,10ZM621-529.53c0-3.49.06-7,0-10.46a15.59,15.59,0,0,0-15.47-15.28,15,15,0,0,0-15.54,15c-.12,3.6-.17,7.21-.2,10.81q-.42,44.1-.83,88.19c-.13,13.62-.39,27.23-.41,40.85,0,9.18,6,15.37,14.79,15.6s15.57-5.82,16.2-14.69c.22-3.14.22-6.3.25-9.46.25-26.42.44-52.84.74-79.26a38.72,38.72,0,0,1,4.74-18.39c8.49-15.5,26.28-24.27,44.3-21.89,15.66,2.06,23.79,8.94,27.7,24.24a66.47,66.47,0,0,1,2,16c.09,18.66-.25,37.33-.41,56-.09,10.92-.14,21.83-.21,32.74,0,5.14,1.47,9.68,5.77,12.77A15.28,15.28,0,0,0,721-385.41c5.76-2.9,8.65-7.95,8.7-14.5q.35-42.61.73-85.22c.11-11.15,3.38-21.2,11.45-29.16,11.89-11.74,26.31-15.4,42.53-12.44,11.84,2.15,19.37,9.32,23.18,20.59,2.5,7.37,2.86,15,2.79,22.69q-.4,42.6-.72,85.21c-.05,9.05,6.56,15.51,15.54,15.55,9.17,0,15.34-6.1,15.47-15.46q.24-16.77.39-33.54c.16-15.41.23-30.84.45-46.25.18-12.47,0-24.89-3-37.08s-8.29-23.06-18.46-30.94c-9.6-7.43-20.83-10-32.66-10.44-21.31-.75-38.24,8.66-52.67,23.39-3.23,3.29-5.79,7.23-8.68,10.9-.56-1.41-1.11-2.83-1.69-4.24-3.11-7.53-7.26-14.49-13.84-19.36-19.4-14.38-40.41-15.37-62.06-6C637.48-546.93,628.57-539.15,621-529.53Zm-325.4-7.69c-.69-.61-.91-.77-1.08-1-19.42-22.18-52.11-30.55-79.7-20.28-22.09,8.23-36.92,24-45.78,45.46-7.79,18.92-9,38.66-5.73,58.68C166.51-434.61,175-417.59,190-404c25.12,22.74,67.5,27.43,96.56.61,2.48-2.28,4.87-4.64,7.5-7.16v6.82c0,7.19,3.54,12.89,9.37,15.06a16.23,16.23,0,0,0,18.34-4.8c3.13-3.72,3.52-8.15,3.57-12.72q.27-30.57.58-61.13c.23-25.87.49-51.75.62-77.63a15.15,15.15,0,0,0-15.25-15.34c-9-.1-15.43,6.05-15.71,15C295.5-542.81,295.57-540.3,295.57-537.22Zm112,72.87h2.88l60.86.56c17,.17,34.08.43,51.12.46a14.84,14.84,0,0,0,15.05-15.4c-.73-24.65-9.72-45.67-28.3-62.07-18.29-16.14-39.83-22.77-63.91-18.67-28.25,4.8-47.58,21.71-59.35,47.31-9.12,19.85-10.63,40.86-6.73,62.17,3.57,19.46,12.82,35.89,28.44,48.3,25.48,20.25,63.41,24.53,93,10.81,9.09-4.21,17.46-9.45,24.1-17,5.29-6,4.91-13.58-.56-18.95-4.77-4.68-13.48-4.95-18.79-.14-12.23,11.06-26.51,15.83-42.88,15.18-22.45-.89-39.29-10.6-49.47-30.93A54.78,54.78,0,0,1,407.56-464.35Zm571.22,86.61c4-.34,8.11-.47,12.11-1.07,31.46-4.78,53.82-21.75,66.68-50.79,7.42-16.75,8.8-34.49,6-52.47-3.26-21.35-12.66-39.55-29.31-53.55-18.8-15.79-40.69-21.82-65-19.35-22.34,2.28-41.11,11.75-55.46,29.11-17.76,21.49-23.41,46.47-19.76,73.72C899.93-408.69,935.13-377.95,978.78-377.74Zm-982.39-157c0-4.49.1-8.09,0-11.69a15.73,15.73,0,0,0-15.55-14.93,15.06,15.06,0,0,0-15.4,14.57c-.18,4-.19,7.93-.24,11.9q-.39,36.64-.75,73.3c-.19,18.3-.39,36.6-.49,54.9,0,8.09,4.61,13.88,11.66,15.43,9.93,2.19,19.57-4.89,19.57-16.84,0-28.58.46-57.16.71-85.74.13-14.26,6.31-25.31,17.86-33.38,11.12-7.78,23.6-9.86,36.85-7.94,13.94,2,22.71,10.19,26.15,23.57A77.27,77.27,0,0,1,79-492.34c0,28.58-.5,57.16-.8,85.74,0,5.17,1.28,9.86,5.47,13.24,5,4.05,10.71,4.84,16.49,2.22,6.14-2.78,9.16-7.95,9.23-14.69.26-27.95.43-55.9.76-83.85.14-11.76-.24-23.44-3.34-34.86-4.57-16.86-13.73-30.09-30.84-36-21.93-7.52-42.77-4.92-62,8.41A70.33,70.33,0,0,0-3.61-534.72Zm1152,11.21c0-4.19.06-7.6,0-11a15.67,15.67,0,0,0-10.79-15c-10.82-3.28-20.24,4.14-20.35,16.08q-.36,38.13-.66,76.28-.27,31-.54,61.94a14.82,14.82,0,0,0,4,10.87c4.82,5,10.79,5.5,17,3.56,5.64-1.76,9.83-7.8,10-13.87.18-8.38.21-16.76.3-25.15q.33-31.92.66-63.83c.13-12,5-21.85,14-29.57,11.46-9.8,24.93-12.76,39.66-10.92,11.48,1.44,20.42,6.77,24.87,17.73,2.14,5.26,4,11,4.11,16.63.46,19.09.14,38.21,0,57.32-.07,12.9-.39,25.79-.36,38.68,0,8.74,6.7,15,15.46,15a15.25,15.25,0,0,0,15.52-15c.16-7.3.25-14.6.33-21.9.21-19.84.37-39.68.62-59.51.17-13.28,0-26.51-3.75-39.4-3.77-13.09-10.25-24.53-22.62-31-20.46-10.75-41.33-10.6-61.94-.12A68.73,68.73,0,0,0,1148.38-523.51Z" transform="translate(61 716.1)"/><path class="cls-3" d="M621-529.53c7.6-9.62,16.51-17.4,27.51-22.17,21.65-9.38,42.66-8.39,62.06,6,6.58,4.87,10.73,11.83,13.84,19.36.58,1.41,1.13,2.83,1.69,4.24,2.89-3.67,5.45-7.61,8.68-10.9,14.43-14.73,31.36-24.14,52.67-23.39,11.83.42,23.06,3,32.66,10.44,10.17,7.88,15.46,18.75,18.46,30.94s3.18,24.61,3,37.08c-.22,15.41-.29,30.84-.45,46.25q-.17,16.77-.39,33.54c-.13,9.36-6.3,15.5-15.47,15.46-9,0-15.59-6.5-15.54-15.55q.25-42.6.72-85.21c.07-7.7-.29-15.32-2.79-22.69-3.81-11.27-11.34-18.44-23.18-20.59-16.22-3-30.64.7-42.53,12.44-8.07,8-11.34,18-11.45,29.16q-.42,42.61-.73,85.22c-.05,6.55-2.94,11.6-8.7,14.5a15.28,15.28,0,0,1-16.62-1.37c-4.3-3.09-5.8-7.63-5.77-12.77.07-10.91.12-21.82.21-32.74.16-18.66.5-37.33.41-56a66.47,66.47,0,0,0-2-16c-3.91-15.3-12-22.18-27.7-24.24-18-2.38-35.81,6.39-44.3,21.89a38.72,38.72,0,0,0-4.74,18.39c-.3,26.42-.49,52.84-.74,79.26,0,3.16,0,6.32-.25,9.46-.63,8.87-7.35,14.92-16.2,14.69s-14.81-6.42-14.79-15.6c0-13.62.28-27.23.41-40.85q.42-44.08.83-88.19c0-3.6.08-7.21.2-10.81a15,15,0,0,1,15.54-15A15.59,15.59,0,0,1,621-540C621-536.51,621-533,621-529.53Z" transform="translate(61 716.1)"/><path class="cls-3" d="M295.57-537.22c0-3.08-.07-5.59,0-8.1.28-8.95,6.74-15.1,15.71-15A15.15,15.15,0,0,1,326.54-545c-.13,25.88-.39,51.76-.62,77.63q-.27,30.57-.58,61.13c0,4.57-.44,9-3.57,12.72a16.23,16.23,0,0,1-18.34,4.8c-5.83-2.17-9.37-7.87-9.37-15.06v-6.82c-2.63,2.52-5,4.88-7.5,7.16C257.5-376.6,215.12-381.29,190-404c-15-13.56-23.49-30.58-26.72-50.29-3.27-20-2.06-39.76,5.73-58.68,8.86-21.5,23.69-37.23,45.78-45.46,27.59-10.27,60.28-1.9,79.7,20.28C294.66-538,294.88-537.83,295.57-537.22ZM244.9-413.9c16.29-.1,30.28-7.22,39.86-21.65,13-19.57,14.62-40.86,7.11-62.84-4.92-14.38-14.24-25.31-28.31-31.4-21.39-9.26-50.44-3.8-64.6,24.11-8.27,16.28-9.07,33.59-4.88,51.1C200-429.91,219.54-414.1,244.9-413.9Z" transform="translate(61 716.1)"/><path class="cls-3" d="M407.56-464.35a54.78,54.78,0,0,0,5.47,21.6c10.18,20.33,27,30,49.47,30.93,16.37.65,30.65-4.12,42.88-15.18,5.31-4.81,14-4.54,18.79.14,5.47,5.37,5.85,12.91.56,18.95-6.64,7.58-15,12.82-24.1,17-29.6,13.72-67.53,9.44-93-10.81C392-414.1,382.75-430.53,379.18-450c-3.9-21.31-2.39-42.32,6.73-62.17,11.77-25.6,31.1-42.51,59.35-47.31,24.08-4.1,45.62,2.53,63.91,18.67,18.58,16.4,27.57,37.42,28.3,62.07a14.84,14.84,0,0,1-15.05,15.4c-17,0-34.08-.29-51.12-.46l-60.86-.56Zm97-25.33a37.24,37.24,0,0,0-7.13-22.23c-14.95-20.69-45.87-26.09-67.55-12-12.09,7.87-17.92,19.48-20.8,33.33Z" transform="translate(61 716.1)"/><path class="cls-3" d="M978.78-377.74c-43.65-.21-78.85-30.95-84.66-74.4-3.65-27.25,2-52.23,19.76-73.72C928.23-543.22,947-552.69,969.34-555c24.28-2.47,46.17,3.56,65,19.35,16.65,14,26,32.2,29.31,53.55,2.75,18,1.37,35.72-6,52.47-12.86,29-35.22,46-66.68,50.79C986.89-378.21,982.82-378.08,978.78-377.74Zm3.36-28.92c11.57.27,26-5.52,37.08-18.64,17.07-20.18,19.35-50.91,5.76-74.75-19.21-33.68-67.35-35.87-89.53-4.08-9.42,13.5-12.14,28.57-11,44.71C926.4-433.37,945.64-407.85,982.14-406.66Z" transform="translate(61 716.1)"/><path class="cls-3" d="M-3.61-534.72a70.33,70.33,0,0,1,17.55-17.37C33.19-565.42,54-568,76-560.5c17.11,5.87,26.27,19.1,30.84,36,3.1,11.42,3.48,23.1,3.34,34.86-.33,27.95-.5,55.9-.76,83.85-.07,6.74-3.09,11.91-9.23,14.69-5.78,2.62-11.48,1.83-16.49-2.22-4.19-3.38-5.52-8.07-5.47-13.24.3-28.58.75-57.16.8-85.74a77.27,77.27,0,0,0-2.25-19.23c-3.44-13.38-12.21-21.54-26.15-23.57-13.25-1.92-25.73.16-36.85,7.94C2.19-519.13-4-508.08-4.12-493.82c-.25,28.58-.72,57.16-.71,85.74,0,11.95-9.64,19-19.57,16.84-7-1.55-11.71-7.34-11.66-15.43.1-18.3.3-36.6.49-54.9q.36-36.66.75-73.3c0-4,.06-7.94.24-11.9a15.06,15.06,0,0,1,15.4-14.57A15.73,15.73,0,0,1-3.63-546.41C-3.51-542.81-3.61-539.21-3.61-534.72Z" transform="translate(61 716.1)"/><path class="cls-3" d="M1148.38-523.51a68.73,68.73,0,0,1,25.54-22.23c20.61-10.48,41.48-10.63,61.94.12,12.37,6.51,18.85,18,22.62,31,3.72,12.89,3.92,26.12,3.75,39.4-.25,19.83-.41,39.67-.62,59.51-.08,7.3-.17,14.6-.33,21.9a15.25,15.25,0,0,1-15.52,15c-8.76,0-15.45-6.26-15.46-15,0-12.89.29-25.78.36-38.68.1-19.11.42-38.23,0-57.32-.13-5.59-2-11.37-4.11-16.63-4.45-11-13.39-16.29-24.87-17.73-14.73-1.84-28.2,1.12-39.66,10.92-9,7.72-13.88,17.57-14,29.57q-.36,31.92-.66,63.83c-.09,8.39-.12,16.77-.3,25.15-.14,6.07-4.33,12.11-10,13.87-6.21,1.94-12.18,1.44-17-3.56a14.82,14.82,0,0,1-4-10.87q.29-31,.54-61.94.33-38.14.66-76.28c.11-11.94,9.53-19.36,20.35-16.08a15.67,15.67,0,0,1,10.79,15C1148.44-531.11,1148.38-527.7,1148.38-523.51Z" transform="translate(61 716.1)"/><path class="cls-2" d="M244.9-413.9c-25.36-.2-44.92-16-50.82-40.68-4.19-17.51-3.39-34.82,4.88-51.1,14.16-27.91,43.21-33.37,64.6-24.11,14.07,6.09,23.39,17,28.31,31.4,7.51,22,5.89,43.27-7.11,62.84C275.18-421.12,261.19-414,244.9-413.9Z" transform="translate(61 716.1)"/><path class="cls-2" d="M504.52-489.68,409-490.57c2.88-13.85,8.71-25.46,20.8-33.33,21.68-14.1,52.6-8.7,67.55,12A37.24,37.24,0,0,1,504.52-489.68Z" transform="translate(61 716.1)"/><path class="cls-2" d="M982.14-406.66c-36.5-1.19-55.74-26.71-57.65-52.76-1.18-16.14,1.54-31.21,11-44.71,22.18-31.79,70.32-29.6,89.53,4.08,13.59,23.84,11.31,54.57-5.76,74.75C1008.13-412.18,993.71-406.39,982.14-406.66Z" transform="translate(61 716.1)"/></svg>